<svg width="801" height="351" viewBox="0 0 801 351" fill="none" xmlns="http://www.w3.org/2000/svg">
<rect width="801" height="351" fill="white"/>
<g filter="url(#filter0_d_1789_18512)">
<path d="M655.047 120.182H145.047C134.001 120.182 125.047 129.136 125.047 140.182V210.182C125.047 221.227 134.001 230.182 145.047 230.182H655.047C666.093 230.182 675.047 221.227 675.047 210.182V140.182C675.047 129.136 666.093 120.182 655.047 120.182Z" fill="#3860E2"/>
</g>
<path d="M469.501 175.282C470.808 175.735 471.888 176.588 472.741 177.842C473.621 179.095 474.061 180.482 474.061 182.002C474.061 184.455 473.208 186.348 471.501 187.682C469.795 189.015 467.355 189.682 464.181 189.682H451.101V161.682H464.181C466.955 161.682 469.141 162.335 470.741 163.642C472.341 164.948 473.141 166.748 473.141 169.042C473.141 170.455 472.821 171.708 472.181 172.802C471.541 173.868 470.648 174.695 469.501 175.282ZM464.341 165.242H454.981V173.562H464.341C465.915 173.562 467.141 173.202 468.021 172.482C468.901 171.762 469.341 170.748 469.341 169.442C469.341 168.135 468.888 167.108 467.981 166.362C467.101 165.615 465.888 165.242 464.341 165.242ZM464.661 186.082C466.368 186.082 467.715 185.682 468.701 184.882C469.688 184.055 470.181 182.935 470.181 181.522C470.181 180.135 469.688 179.042 468.701 178.242C467.741 177.442 466.395 177.042 464.661 177.042H454.981V186.082H464.661ZM493.224 169.922H496.944V189.682H493.624L493.584 186.882C491.878 188.988 489.571 190.042 486.664 190.042C484.131 190.042 482.104 189.215 480.584 187.562C479.064 185.908 478.304 183.682 478.304 180.882V169.922H482.024V180.642C482.024 182.535 482.478 184.002 483.384 185.042C484.291 186.082 485.558 186.602 487.184 186.602C488.971 186.602 490.424 186.028 491.544 184.882C492.664 183.708 493.224 182.228 493.224 180.442V169.922ZM517.086 169.922H521.086L508.606 198.962H504.526L508.566 189.562L500.686 169.922H504.686L508.526 179.762L510.646 185.442L512.966 179.762L517.086 169.922ZM554.296 161.682H558.176V189.682H554.616L538.536 168.322V189.682H534.656V161.682H538.216L554.296 183.002V161.682ZM573.29 190.122C570.17 190.122 567.65 189.148 565.73 187.202C563.81 185.255 562.85 182.788 562.85 179.802C562.85 176.815 563.81 174.348 565.73 172.402C567.65 170.455 570.17 169.482 573.29 169.482C576.384 169.482 578.89 170.455 580.81 172.402C582.73 174.348 583.69 176.815 583.69 179.802C583.69 182.788 582.73 185.255 580.81 187.202C578.89 189.148 576.384 190.122 573.29 190.122ZM573.29 186.682C575.264 186.682 576.864 186.015 578.09 184.682C579.344 183.348 579.97 181.722 579.97 179.802C579.97 177.882 579.344 176.255 578.09 174.922C576.864 173.588 575.264 172.922 573.29 172.922C571.29 172.922 569.664 173.588 568.41 174.922C567.184 176.255 566.57 177.882 566.57 179.802C566.57 181.722 567.184 183.348 568.41 184.682C569.664 186.015 571.29 186.682 573.29 186.682ZM612.736 169.922H616.656L610.056 189.682H605.976L604.056 183.922L600.936 175.242L597.816 183.922L595.856 189.682H591.776L585.136 169.922H589.096L591.496 177.522L593.856 185.402L599.256 169.922H602.576L607.896 185.522L612.736 169.922Z" fill="white"/>
<path d="M252.941 157.682C252.488 157.682 252.103 158.01 252.032 158.458L246.791 191.695C246.772 191.816 246.78 191.941 246.813 192.059C246.847 192.177 246.906 192.287 246.985 192.38C247.065 192.473 247.164 192.548 247.276 192.6C247.388 192.651 247.509 192.678 247.632 192.678H253.847C254.3 192.678 254.685 192.349 254.756 191.902L256.295 182.141C256.365 181.694 256.751 181.365 257.203 181.365H262.854C269.457 181.365 275.062 176.548 276.085 170.02C277.118 163.437 271.975 157.696 264.685 157.682H252.941ZM258.983 165.101H263.504C267.226 165.101 268.438 167.298 268.055 169.727C267.672 172.161 265.789 173.954 262.188 173.954H257.587L258.983 165.101ZM288.727 167.361C287.157 167.367 285.351 167.688 283.324 168.533C278.673 170.471 276.44 174.477 275.492 177.398C275.492 177.398 272.473 186.308 279.293 191.204C279.293 191.204 285.618 195.917 292.739 190.914L292.616 191.695C292.597 191.816 292.604 191.94 292.638 192.058C292.671 192.177 292.73 192.286 292.809 192.38C292.889 192.473 292.988 192.548 293.1 192.599C293.211 192.651 293.332 192.678 293.455 192.678H299.356C299.808 192.678 300.193 192.349 300.264 191.902L303.853 169.141C303.872 169.019 303.865 168.895 303.831 168.777C303.798 168.659 303.74 168.549 303.66 168.455C303.58 168.362 303.481 168.287 303.369 168.235C303.258 168.184 303.136 168.157 303.014 168.157H297.113C296.66 168.157 296.275 168.486 296.205 168.933L296.012 170.158C296.012 170.158 293.436 167.343 288.727 167.361ZM288.92 174.55C289.597 174.55 290.217 174.644 290.773 174.822C293.319 175.639 294.762 178.085 294.345 180.736C293.829 184 291.152 186.404 287.719 186.404C287.042 186.404 286.423 186.311 285.866 186.132C283.321 185.315 281.868 182.869 282.286 180.218C282.801 176.954 285.486 174.55 288.92 174.55Z" fill="white"/>
<path d="M337.909 157.682C337.456 157.682 337.072 158.01 337.001 158.458L331.76 191.695C331.741 191.816 331.748 191.941 331.782 192.059C331.815 192.177 331.874 192.287 331.954 192.38C332.034 192.473 332.133 192.548 332.245 192.6C332.356 192.651 332.478 192.678 332.601 192.678H338.816C339.268 192.678 339.653 192.349 339.724 191.902L341.264 182.141C341.334 181.694 341.719 181.365 342.172 181.365H347.823C354.425 181.365 360.029 176.548 361.053 170.02C362.085 163.437 356.943 157.696 349.654 157.682H337.909ZM343.951 165.101H348.472C352.195 165.101 353.407 167.298 353.023 169.727C352.64 172.161 350.758 173.954 347.157 173.954H342.555L343.951 165.101ZM373.695 167.361C372.125 167.367 370.319 167.688 368.292 168.533C363.641 170.471 361.408 174.477 360.46 177.398C360.46 177.398 357.442 186.308 364.262 191.204C364.262 191.204 370.586 195.917 377.707 190.914L377.584 191.695C377.565 191.816 377.573 191.941 377.606 192.059C377.64 192.177 377.699 192.287 377.778 192.38C377.858 192.473 377.957 192.548 378.069 192.6C378.181 192.651 378.302 192.678 378.425 192.678H384.325C384.778 192.678 385.162 192.349 385.233 191.902L388.823 169.141C388.843 169.019 388.835 168.895 388.802 168.777C388.768 168.658 388.71 168.548 388.63 168.455C388.55 168.361 388.451 168.286 388.339 168.235C388.227 168.183 388.106 168.157 387.983 168.157H382.082C381.63 168.157 381.244 168.486 381.174 168.933L380.981 170.158C380.981 170.158 378.404 167.343 373.695 167.361ZM373.888 174.55C374.565 174.55 375.185 174.644 375.741 174.822C378.287 175.639 379.73 178.085 379.312 180.736C378.797 184 376.12 186.404 372.687 186.404C372.01 186.404 371.39 186.311 370.834 186.132C368.289 185.315 366.836 182.869 367.254 180.218C367.769 176.954 370.454 174.55 373.888 174.55Z" fill="white"/>
<path d="M306.653 168.157C306.185 168.157 305.852 168.614 305.995 169.059L312.464 189.132L306.615 198.592C306.331 199.051 306.661 199.644 307.201 199.644H314.114C314.312 199.644 314.506 199.593 314.678 199.495C314.85 199.398 314.994 199.258 315.097 199.089L333.163 169.203C333.44 168.743 333.109 168.156 332.573 168.156H325.66C325.46 168.156 325.264 168.209 325.091 168.308C324.918 168.407 324.773 168.549 324.671 168.721L317.56 180.727L313.95 168.81C313.833 168.422 313.475 168.156 313.07 168.156L306.653 168.157Z" fill="white"/>
<path d="M395.527 157.682C395.075 157.682 394.69 158.011 394.619 158.458L389.377 191.694C389.357 191.815 389.365 191.939 389.398 192.058C389.431 192.176 389.49 192.286 389.57 192.38C389.65 192.473 389.749 192.548 389.861 192.6C389.973 192.651 390.094 192.678 390.217 192.678H396.433C396.885 192.678 397.27 192.349 397.341 191.902L402.582 158.664C402.601 158.543 402.593 158.419 402.56 158.301C402.527 158.183 402.468 158.073 402.388 157.98C402.308 157.887 402.209 157.812 402.098 157.76C401.987 157.709 401.865 157.682 401.742 157.682H395.527Z" fill="white"/>
<path d="M201.124 157.682C200.724 157.682 200.337 157.825 200.032 158.085C199.728 158.345 199.526 158.706 199.464 159.101L196.705 176.599C196.833 175.782 197.538 175.179 198.365 175.179H206.45C214.586 175.179 221.49 169.244 222.751 161.201C222.845 160.6 222.898 159.994 222.911 159.386C220.843 158.302 218.414 157.682 215.753 157.682H201.124Z" fill="white"/>
<path d="M222.911 159.387C222.898 159.994 222.845 160.601 222.751 161.201C221.49 169.244 214.585 175.18 206.45 175.18H198.365C197.538 175.18 196.833 175.781 196.705 176.599L194.168 192.678L192.579 202.765C192.548 202.96 192.56 203.16 192.613 203.35C192.667 203.54 192.761 203.716 192.889 203.866C193.017 204.016 193.176 204.136 193.356 204.219C193.535 204.301 193.73 204.344 193.927 204.344H202.702C203.102 204.344 203.489 204.201 203.794 203.94C204.098 203.68 204.3 203.32 204.362 202.925L206.674 188.265C206.736 187.869 206.938 187.509 207.243 187.249C207.547 186.989 207.935 186.846 208.335 186.846H213.502C221.638 186.846 228.542 180.91 229.804 172.867C230.699 167.158 227.824 161.963 222.911 159.387Z" fill="white" fill-opacity="0.5"/>
<path d="M191.155 146.02C190.328 146.02 189.623 146.621 189.495 147.438L182.609 191.102C182.478 191.93 183.119 192.68 183.958 192.68H194.169L196.705 176.601L199.464 159.103C199.526 158.708 199.728 158.348 200.032 158.087C200.337 157.827 200.724 157.684 201.124 157.684H215.753C218.415 157.684 220.843 158.305 222.911 159.388C223.052 152.065 217.01 146.02 208.702 146.02H191.155Z" fill="white"/>
<defs>
<filter id="filter0_d_1789_18512" x="50.0469" y="85.1816" width="700" height="260" filterUnits="userSpaceOnUse" color-interpolation-filters="sRGB">
<feFlood flood-opacity="0" result="BackgroundImageFix"/>
<feColorMatrix in="SourceAlpha" type="matrix" values="0 0 0 0 0 0 0 0 0 0 0 0 0 0 0 0 0 0 127 0" result="hardAlpha"/>
<feOffset dy="40"/>
<feGaussianBlur stdDeviation="37.5"/>
<feComposite in2="hardAlpha" operator="out"/>
<feColorMatrix type="matrix" values="0 0 0 0 0.219608 0 0 0 0 0.376471 0 0 0 0 0.886275 0 0 0 0.25 0"/>
<feBlend mode="multiply" in2="BackgroundImageFix" result="effect1_dropShadow_1789_18512"/>
<feBlend mode="normal" in="SourceGraphic" in2="effect1_dropShadow_1789_18512" result="shape"/>
</filter>
</defs>
</svg>
